<svg xmlns="http://www.w3.org/2000/svg" width="200" height="200.002" viewBox="0 0 200 200.002"><path d="M253.319,2195.318l15.042,24.378,23.227-16.764,4.567,28.276,27.875-6.6-6.6,27.877,28.278,4.567-16.766,23.227,24.379,15.042-24.379,15.042,16.766,23.227-28.278,4.567,6.6,27.877-27.875-6.6-4.567,28.276-23.227-16.764-15.042,24.378-15.043-24.378-23.225,16.764-4.568-28.276-27.873,6.6,6.6-27.877-28.28-4.567,16.767-23.227-24.379-15.042,24.379-15.042-16.767-23.227,28.28-4.567-6.6-27.877,27.873,6.6,4.568-28.276,23.225,16.764Z" transform="translate(-153.319 -2195.318)"/></svg>